<?xml version="1.0" encoding="UTF-8"?>
<svg xmlns="http://www.w3.org/2000/svg" id="a" width="865.76" height="682.89" viewBox="0 0 865.76 682.89">
  <g>
    <rect x="123.38" y="323.81" width="16" height="52" fill="#fff"></rect>
    <path d="M139.88,376.31h-17v-53h17v53Zm-16-1h15v-51h-15v51Z" fill="#002346"></path>
  </g>
  <g>
    <rect x="102.38" y="342.81" width="16" height="33" fill="#fff"></rect>
    <path d="M118.88,376.31h-17v-34h17v34Zm-16-1h15v-32h-15v32Z" fill="#002346"></path>
  </g>
  <g>
    <rect x="144.38" y="330.81" width="16" height="45" fill="#fff"></rect>
    <path d="M160.88,376.31h-17v-46h17v46Zm-16-1h15v-44h-15v44Z" fill="#002346"></path>
  </g>
  <g>
    <rect x="164.38" y="311.81" width="16" height="64" fill="#fff"></rect>
    <path d="M180.88,376.31h-17v-65h17v65Zm-16-1h15v-63h-15v63Z" fill="#002346"></path>
  </g>
  <g>
    <rect x="185.38" y="302.81" width="16" height="73" fill="#fff"></rect>
    <path d="M201.88,376.31h-17v-74h17v74Zm-16-1h15v-72h-15v72Z" fill="#002346"></path>
  </g>
  <g>
    <circle cx="571.38" cy="105.81" r="49.5" fill="#6d28d9"></circle>
    <path d="M571.38,155.81c-27.57,0-50-22.43-50-50s22.43-50,50-50,50,22.43,50,50-22.43,50-50,50Zm0-99c-27.02,0-49,21.98-49,49s21.98,49,49,49,49-21.98,49-49-21.98-49-49-49Z" fill="#002346"></path>
  </g>
  <g>
    <circle cx="571.38" cy="105.81" r="36.5" fill="#fff"></circle>
    <path d="M571.38,142.81c-20.4,0-37-16.6-37-37s16.6-37,37-37,37,16.6,37,37-16.6,37-37,37Zm0-73c-19.85,0-36,16.15-36,36s16.15,36,36,36,36-16.15,36-36-16.15-36-36-36Z" fill="#002346"></path>
  </g>
  <g>
    <circle cx="571.38" cy="105.81" r="24" fill="#6d28d9"></circle>
    <path d="M571.38,130.31c-13.51,0-24.5-10.99-24.5-24.5s10.99-24.5,24.5-24.5,24.5,10.99,24.5,24.5-10.99,24.5-24.5,24.5Zm0-48c-12.96,0-23.5,10.54-23.5,23.5s10.54,23.5,23.5,23.5,23.5-10.54,23.5-23.5-10.54-23.5-23.5-23.5Z" fill="#002346"></path>
  </g>
  <g>
    <circle cx="571.88" cy="105.31" r="13" fill="#fff"></circle>
    <path d="M571.88,118.81c-7.44,0-13.5-6.06-13.5-13.5s6.06-13.5,13.5-13.5,13.5,6.06,13.5,13.5-6.06,13.5-13.5,13.5Zm0-26c-6.89,0-12.5,5.61-12.5,12.5s5.61,12.5,12.5,12.5,12.5-5.61,12.5-12.5-5.61-12.5-12.5-12.5Z" fill="#002346"></path>
  </g>
  <g>
    <rect x="120.88" y="147.31" width="84" height="63" fill="#fff"></rect>
    <path d="M205.38,210.81H120.38v-64h85v64Zm-84-1h83v-62H121.38v62Z" fill="#002346"></path>
  </g>
  <g>
    <rect x="287.19" y="343.34" width="35.59" height="5.26" fill="#6d28d9"></rect>
    <path d="M323.28,349.1h-36.59v-6.25h36.59v6.25Zm-35.59-1h34.59v-4.25h-34.59v4.25Z" fill="#002346"></path>
  </g>
  <g>
    <rect x="331.28" y="349.32" width="38.43" height="4.95" fill="#c4b5fd"></rect>
    <path d="M370.21,354.77h-39.43v-5.95h39.43v5.95Zm-38.43-1h37.43v-3.95h-37.43v3.95Z" fill="#002346"></path>
  </g>
  <g>
    <rect x="279.3" y="348.84" width="39.41" height="9.27" fill="#fff"></rect>
    <path d="M319.22,358.61h-40.41v-10.27h40.41v10.27Zm-39.41-1h38.41v-8.27h-38.41v8.27Z" fill="#002346"></path>
  </g>
  <rect x="370.97" y="358.15" width="1" height="288.51" transform="translate(-31.18 24.62) rotate(-3.64)" fill="#002346"></rect>
  <path d="M475.67,642.36c-.07,0-.14-.02-.21-.05-.25-.12-.36-.41-.24-.66,6.18-13.2,22.67-15.79,38.61-18.28,18.99-2.98,36.94-5.79,38.25-25.22,3.59-22.02-1.31-59.14-1.36-59.51-1.14-15.34-3.59-28.28-7.29-38.47-5.24-15.93-18.45-20.02-30.1-23.63-8.67-2.68-16.86-5.22-20.64-12.19-.13-.24-.04-.55,.2-.68,.24-.13,.55-.04,.68,.2,3.59,6.61,11.59,9.09,20.06,11.71,11.89,3.68,25.36,7.85,30.75,24.25,3.72,10.26,6.19,23.29,7.34,38.69,.05,.34,4.97,37.61,1.36,59.73-1.36,20.18-20.54,23.19-39.09,26.09-15.68,2.46-31.9,5-37.86,17.72-.08,.18-.27,.29-.45,.29Z" fill="#002346"></path>
  <path d="M649.91,638.27c-.27,0-.49-.21-.5-.48-.17-5.77-8.94-13.86-49.7-19.58-1.87-.26-2.44-.35-2.69-.42-7.53-.78-13.55-3.95-17.86-9.41-12.42-15.7-8.35-46.72-6.16-63.38,.67-5.14,1.21-9.2,.9-10.39-.01-.05-.02-.1-.02-.15,3.11-54.1,21.76-58.79,38.21-62.92,10.33-2.59,19.25-4.84,22.26-19.63,.06-.27,.32-.44,.59-.39,.27,.06,.44,.32,.39,.59-3.14,15.41-12.79,17.83-23,20.4-16.11,4.05-34.37,8.64-37.45,61.93,.32,1.44-.17,5.14-.89,10.69-2.17,16.52-6.2,47.26,5.96,62.63,4.16,5.25,9.96,8.3,17.24,9.04,.06,0,.12,.02,.17,.05,.13,.03,1.23,.19,2.5,.37,33.28,4.67,50.29,11.58,50.56,20.54,0,.28-.21,.51-.48,.52h-.02Z" fill="#002346"></path>
  <g>
    <path d="M657.33,644.11c.14,9.91-15.43,9.91-15.28,0-.14-9.91,15.43-9.91,15.28,0Z" fill="#fff"></path>
    <path d="M649.69,652.05c-1.57,0-3.15-.39-4.49-1.18-2.4-1.4-3.7-3.81-3.65-6.77-.04-2.95,1.25-5.35,3.65-6.75,2.68-1.57,6.29-1.57,8.97,0,2.4,1.4,3.69,3.8,3.65,6.76,.04,2.96-1.26,5.36-3.65,6.76-1.34,.78-2.91,1.17-4.49,1.18Zm0-14.88c-1.4,0-2.79,.35-3.98,1.04-2.07,1.21-3.2,3.3-3.16,5.89-.04,2.6,1.08,4.69,3.16,5.91,2.38,1.39,5.58,1.39,7.97,0,2.07-1.21,3.2-3.3,3.16-5.89h0c.04-2.6-1.08-4.69-3.16-5.91-1.19-.7-2.59-1.04-3.98-1.04Z" fill="#002346"></path>
  </g>
  <g>
    <path d="M482.69,644.38c.14,9.91-15.43,9.91-15.28,0-.14-9.91,15.43-9.91,15.28,0Z" fill="#fff"></path>
    <path d="M475.05,652.32c-1.57,0-3.15-.39-4.49-1.18-2.4-1.4-3.7-3.81-3.65-6.77-.04-2.95,1.25-5.35,3.65-6.75,2.69-1.57,6.29-1.57,8.98,0,2.4,1.4,3.69,3.8,3.65,6.76,.04,2.96-1.26,5.36-3.65,6.76-1.34,.78-2.91,1.17-4.49,1.18Zm0-14.88c-1.4,0-2.79,.35-3.98,1.04-2.07,1.21-3.2,3.3-3.16,5.89-.04,2.6,1.08,4.69,3.16,5.91,2.38,1.39,5.58,1.39,7.97,0,2.07-1.21,3.2-3.3,3.16-5.89h0c.04-2.6-1.08-4.69-3.16-5.91-1.19-.7-2.59-1.04-3.98-1.04Z" fill="#002346"></path>
  </g>
  <g>
    <path d="M419.7,585.44l4.55,19.11s28.67,2.73,40.95-4.55l-6.88-24.52-38.63,9.96Z" fill="#f2b3c1"></path>
    <path d="M436.62,605.57c-6.75,0-11.92-.48-12.41-.52l-.36-.03-4.75-19.94,39.58-10.21,7.11,25.37-.33,.2c-7.13,4.23-19.5,5.14-28.85,5.14Zm-11.96-1.49c3.29,.27,28.53,2.13,39.96-4.32l-6.64-23.68-37.68,9.72,4.35,18.28Z" fill="#002346"></path>
  </g>
  <g>
    <path d="M350.74,570.15l-9.76,23.02s27.76,4.55,37.77,14.11l8.65-22.75-36.65-14.38Z" fill="#f2b3c1"></path>
    <path d="M378.95,608.16l-.54-.52c-9.78-9.34-37.23-13.93-37.5-13.97l-.63-.1,10.2-24.05,37.57,14.73-9.09,23.92Zm-37.26-15.37c4.2,.74,27.21,5.09,36.86,13.63l8.21-21.6-35.74-14.02-9.32,21.99Z" fill="#002346"></path>
  </g>
  <g>
    <path d="M269.09,618.2s.46,5.01,14.56,10.47c22.09,5.13,67.67,29.02,91.01,20.93l-1.82-7.28-36.86-7.74-31.85-11.83c-6.22-1.04-31.62-15.06-35.04-4.55Z" fill="#002346"></path>
    <path d="M363.5,651.74c-16.26,0-37.46-7.82-55.21-14.36-9.36-3.45-18.2-6.71-24.76-8.23-14.3-5.53-14.93-10.69-14.95-10.91v-.1s.02-.1,.02-.1c.51-1.58,1.52-2.73,2.99-3.43,5.54-2.61,16.71,1.76,24.86,4.95,3.33,1.3,6.2,2.43,7.74,2.69l31.94,11.86,37.09,7.78,2.01,8.03-.43,.15c-3.36,1.16-7.18,1.67-11.32,1.67Zm-93.9-33.51c.17,.68,1.73,5.13,14.23,9.96,6.55,1.52,15.42,4.78,24.81,8.25,21.92,8.08,49.16,18.12,65.42,12.83l-1.63-6.53-36.55-7.67-31.92-11.85c-1.55-.25-4.33-1.34-7.85-2.72-7.98-3.13-18.92-7.41-24.07-4.98-1.19,.56-1.99,1.45-2.43,2.71Z" fill="#002346"></path>
  </g>
  <g>
    <path d="M376.48,615.93l-.91,25.48c-12.95-8.13-29.85-6.33-41.24-9.44-8.71-2.41-57.94-23.27-62.51-19.23,5.46-5.92,20.02-3.64,20.02-3.64,24.57,.46,45.05-10.01,45.05-10.01h2.73l12.74,7.28,24.12,9.56Z" fill="#6d28d9"></path>
    <path d="M376.03,642.29l-.73-.46c-8.37-5.25-18.58-6.33-27.59-7.29-4.9-.52-9.52-1.01-13.51-2.09-2.47-.68-8.05-2.79-15.11-5.46-16.41-6.2-43.88-16.59-46.93-13.87l-.7-.71c5.58-6.04,19.86-3.89,20.47-3.79,24.1,.44,44.54-9.86,44.74-9.96l.11-.05h2.98l12.86,7.35,24.38,9.65-.95,26.7Zm-101.99-30.56c6.87,0,24.71,6.5,45.39,14.32,7.04,2.66,12.6,4.76,15.03,5.43,3.91,1.07,8.5,1.55,13.35,2.06,8.86,.94,18.87,2,27.29,6.99l.87-24.27-23.79-9.43-12.69-7.25h-2.48c-1.66,.82-21.69,10.45-45.18,10.01-.19-.03-11.99-1.8-18.04,2.14,.08,0,.17,0,.26,0Z" fill="#002346"></path>
  </g>
  <g>
    <path d="M375.57,641.41l-.91,8.19c-4.55-8.19-34.58-11.83-34.58-11.83,0,0-54.15-19.11-54.6-19.57-12.21-4.81-15.39-1.8-16.16-.5-.08,.13-.27,.07-.27-.08-.02-2.87,2.77-4.87,2.77-4.87,4.51-4.06,53.86,16.84,62.51,19.23,11.38,3.11,28.32,1.31,41.24,9.44Z" fill="#fff"></path>
    <path d="M374.98,651.21l-.76-1.37c-4.38-7.88-33.91-11.54-34.21-11.58l-.11-.02c-23.8-8.4-52.09-18.44-54.61-19.59v.02c-12.03-4.74-14.94-1.75-15.55-.72-.15,.25-.44,.37-.72,.29-.28-.08-.48-.33-.48-.63-.03-3.1,2.86-5.2,2.98-5.28,3.16-2.86,23.58,4.53,47.94,13.73,7.03,2.66,12.59,4.76,14.99,5.42,3.91,1.07,8.5,1.55,13.36,2.07,9.13,.97,19.47,2.06,28.02,7.43l.27,.17-1.12,10.06Zm-34.79-13.93c1.77,.22,27.74,3.53,34.12,10.96l.73-6.57c-8.3-5.11-18.4-6.18-27.32-7.12-4.9-.52-9.53-1.01-13.52-2.1-2.45-.68-8.03-2.78-15.08-5.45-16.43-6.21-43.94-16.6-46.96-13.89-.06,.05-1.91,1.4-2.46,3.37,1.69-1.45,5.86-2.73,15.96,1.25l.12,.06c1.8,.86,39.75,14.3,54.41,19.48Z" fill="#002346"></path>
  </g>
  <g>
    <path d="M545.99,240.1s18.55-31.05,85.55-20.02c51.8,8.53,118.16,211.5-5,234.35,9.81-1.82-128.86,21.64-194.76,3.18l30.32-95.98s82.98-123.8,83.89-121.53Z" fill="#fff"></path>
    <path d="M500.9,465.27c-25.78,0-50.42-1.91-69.26-7.18l-.5-.14,30.54-96.6c.2-.3,20.65-30.8,41.1-60.87,36.4-53.53,41.71-60.06,42.89-60.82,.8-1.24,5.69-8.24,17.75-14.16,11.94-5.86,33.46-11.64,68.2-5.92,14.33,2.36,30.7,19.9,43.8,46.93,13.44,27.73,21.32,60.5,21.62,89.88,.32,31.85-8.39,86.98-70.35,98.51-.02,0-.04,0-.06,.01v-.04c-.38,.05-.95,.14-1.65,.24-26.1,3.79-76.98,10.16-124.08,10.16Zm-68.49-8.01c53.2,14.66,152.22,2.7,192.42-3.14,.97-.14,1.58-.23,1.97-.26,.04,0,.07-.01,.08-.02h0c60.9-11.54,69.47-65.97,69.15-97.44-.3-29.25-8.14-61.85-21.52-89.46-12.96-26.73-29.06-44.07-43.06-46.38-65.83-10.84-84.85,19.48-85.04,19.79l-.52,.86-.15-.37c-5.78,6.05-61.55,88.69-83.2,120.99l-30.15,95.42Z" fill="#002346"></path>
  </g>
  <g>
    <path d="M574.73,386.12c-44.27,5.13-102.79,5.92-104.87,35.02l-12.84,.95,35.95,144.7-73.26,18.66-14.11-55.06-18.2,54.15-63.7-25.03c4.88-8.11,40.65-160.9,53.16-172.91,20.68-19.86,89.01-26.66,90.17-28.21h113.76c3.47,7.49,6.94,17.88,6.57,25.13,0,0-3.01,1.09-12.63,2.61Z" fill="#c4b5fd"></path>
    <path d="M419.34,586.05l-13.81-53.91-17.83,53.04-64.75-25.44,.31-.51c1.68-2.79,7.18-23.39,14.14-49.48,13.03-48.8,30.87-115.63,39.1-123.53,16.17-15.53,61.52-23.17,80.88-26.43,4.73-.8,8.82-1.49,9.3-1.79l.15-.2,.18,.07h114.08l.13,.29c3.45,7.44,6.99,18.01,6.61,25.37l-.02,.33-.31,.11c-.12,.04-3.17,1.13-12.72,2.63h-.02c-6.42,.75-12.98,1.38-19.93,2.06-40.68,3.95-82.75,8.04-84.49,32.5l-.03,.43-12.68,.93,35.92,144.61-74.23,18.9Zm-13.68-57.43l14.4,56.21,72.3-18.41-35.97-144.79,13.01-.96c2.25-24.92,44.5-29.02,85.36-32.99,6.94-.67,13.5-1.31,19.9-2.05,7.76-1.22,11.22-2.18,12.21-2.48,.24-7.07-3.1-17.07-6.4-24.27h-113.29c-.71,.38-2.86,.77-9.62,1.9-19.27,3.25-64.41,10.85-80.36,26.17-8.02,7.71-25.83,74.38-38.83,123.07-6.66,24.95-11.99,44.9-13.99,49.22l62.7,24.63,18.57-55.25Z" fill="#002346"></path>
  </g>
  <path d="M460.34,435.39c-.22,0-.42-.15-.48-.37-.07-.27,.08-.54,.35-.61l8.1-2.23c-.84-9.22,1.15-16.63,6.09-22.64,12.66-15.4,43.21-18.32,72.75-21.14,33-3.15,67.13-6.41,77.78-26.61,.13-.24,.43-.34,.68-.21,.24,.13,.34,.43,.21,.68-10.9,20.68-45.3,23.96-78.57,27.14-29.34,2.8-59.69,5.7-72.08,20.78-4.84,5.89-6.74,13.19-5.83,22.33,.02,.24-.13,.47-.37,.53l-8.51,2.34s-.09,.02-.13,.02Z" fill="#002346"></path>
  <path d="M482.04,454.89c-.22,0-.42-.14-.48-.36-.06-.2-5.53-19.94,4.45-33.71,6.01-8.3,16.31-12.79,30.6-13.34l83.67-12.28c.36-.04,34.68-4.72,39.16-58.65-.89-7.21,.17-17.65,1.39-29.74,3.51-34.65,7.87-77.77-28.7-81.72-.27-.03-.47-.28-.44-.55,.03-.27,.26-.48,.55-.44,37.56,4.05,32.95,49.57,29.59,82.81-1.22,12.05-2.27,22.46-1.39,29.56,0,.03,0,.07,0,.1-2.36,28.61-13.09,43.29-21.68,50.56-9.34,7.91-17.99,9-18.35,9.04l-83.71,12.28c-14.02,.54-24.05,4.89-29.88,12.93-9.7,13.38-4.35,32.66-4.3,32.86,.08,.27-.08,.54-.34,.62-.05,.01-.09,.02-.14,.02Z" fill="#002346"></path>
  <g>
    <path d="M442.38,304.68c-1.35,.43-3.96,.64-7-2.26,0,0,4.8-4.87,6.62-7.6,0,0,1.54,3.07,1.4,8.48-.02,.63-.43,1.19-1.03,1.38Z" fill="#6d28d9"></path>
    <path d="M440.74,305.43c-1.5,0-3.51-.55-5.7-2.65l-.37-.35,.36-.36s4.79-4.86,6.56-7.52l.48-.72,.39,.77c.07,.13,1.6,3.25,1.46,8.71-.02,.85-.58,1.59-1.38,1.84-.46,.15-1.07,.27-1.79,.27Zm-4.64-3.03c2.71,2.39,4.99,2.17,6.13,1.8h0c.4-.13,.67-.49,.68-.92,.09-3.63-.6-6.2-1.03-7.43-1.73,2.32-4.74,5.47-5.78,6.54Z" fill="#002346"></path>
  </g>
  <g>
    <path d="M442,295.13s.88,2.63,.95,8.49c0,.25,.31,.37,.47,.18l12.68-15.04s1.05,4.18,5.88,8.27c3.29,2.78,6.17,6.02,8.25,9.8,6.55,11.89,12.48,33.66-3.21,51.55,4.9,3.79,10.94,9.49,17.7,8.14,21.5-3.86,41.06,6.52,71.49,8.24l.46-16.38,5.73,.31,3.83,15.16s15.47-2.73,22.75-9.1l-16.38-32.31-4.55-30.49-.46-32.31s5.22-.44,9.29,1.68c.05,.02,.08-.03,.04-.06-26.9-24.94-20.58-55.19-86.69-64.86-3.08-4.42-9.24-8.61-18.66-6.82,0,0-30.03,14.11-30.03,14.11l-15.02,63.25,6.83,20.93,8.65-2.73Z" fill="#6d28d9"></path>
    <path d="M556.7,375.29l-.51-.03c-13.05-.74-24.26-3.1-34.15-5.18-13.42-2.82-25.01-5.26-37.22-3.07-6.2,1.23-11.83-3.26-16.36-6.87-.59-.47-1.17-.93-1.73-1.37l-.42-.33,.35-.4c17.8-20.29,6.91-44.15,3.15-50.98-1.89-3.44-4.63-6.69-8.14-9.66-3.63-3.07-5.17-6.18-5.75-7.65l-12.11,14.36c-.21,.25-.54,.34-.84,.23-.31-.11-.51-.39-.51-.72-.05-4.32-.56-6.87-.8-7.86l-8.62,2.72-7.02-21.54,.03-.14,15.07-63.48,15.23-7.16c11.58-5.44,14.38-6.75,15.15-7l-.02-.09c11.14-2.11,16.95,3.94,19.03,6.85,46.34,6.83,57.23,23.87,68.75,41.9,4.91,7.68,9.98,15.63,17.99,23.06l.32,.3-.5,.77-.44-.19c-3.19-1.66-7.2-1.69-8.55-1.64l.45,31.83,4.53,30.34,16.52,32.58-.29,.26c-7.3,6.39-22.36,9.1-22.99,9.22l-.46,.08-3.85-15.26-4.85-.26-.46,16.38Zm-62.07-10.12c8.89,0,17.76,1.87,27.61,3.94,9.73,2.05,20.73,4.36,33.49,5.13l.46-16.38,6.61,.35,3.8,15.06c2.56-.5,15.26-3.22,21.76-8.65l-16.25-32.11-4.55-30.49-.47-32.84,.46-.04c.18-.02,3.73-.29,7.29,.81-7.12-7.03-11.84-14.42-16.42-21.59-11.41-17.87-22.19-34.74-68.26-41.48l-.21-.03-.12-.18c-1.86-2.67-7.34-8.64-18.09-6.63-1.36,.64-27.1,12.73-29.76,13.98l-14.93,62.88,6.63,20.33,8.64-2.73,.16,.47c.04,.11,.85,2.58,.97,8.03l12.91-15.3,.24,.94s1.08,4.09,5.72,8.01c3.6,3.05,6.41,6.39,8.37,9.94,3.82,6.93,14.81,31.03-2.92,51.72,.43,.34,.88,.69,1.33,1.05,4.59,3.66,9.79,7.82,15.55,6.67,3.37-.61,6.69-.87,10.01-.87Z" fill="#002346"></path>
  </g>
  <rect x="584.14" y="330.17" width="1" height="322.79" transform="translate(-31.33 39.88) rotate(-3.8)" fill="#002346"></rect>
  <rect x="101.24" y="491.06" width="322.87" height="1" transform="translate(-246.14 719.02) rotate(-85.97)" fill="#002346"></rect>
  <g>
    <polygon points="270.45 234.15 281.37 310.14 408.78 310.14 408.78 306.5 368.29 306.5 355.54 233.7 270.45 234.15" fill="#6d28d9"></polygon>
    <path d="M409.28,310.64h-128.34l-.06-.43-11-76.56,86.09-.46,12.74,72.81h40.58v4.64Zm-127.48-1h126.48v-2.64h-40.42l-.07-.41-12.67-72.39-84.09,.45,10.78,74.99Z" fill="#002346"></path>
  </g>
  <path d="M364.64,307.91c-.24,0-.45-.17-.49-.41l-12.74-71.44c-.05-.27,.13-.53,.4-.58,.28-.05,.53,.13,.58,.4l12.74,71.44c.05,.27-.13,.53-.4,.58-.03,0-.06,0-.09,0Z" fill="#002346"></path>
  <g>
    <path d="M426.31,222.03c1.44-18.96-11.42-20.57-2.72-34.98,3.51,8.16,2.16,24.12,27.28,25.09l-6.66,10.64c-.56,.89-.94,1.88-1.13,2.92l-10.64,58.5s6.37,5.46,9.56,10.92c-3.07,11.11-54.95,38.41-43.85-9.98,4.33-15.13,14.71-37.58,26.13-57.43,.87-1.67,1.97-3.75,2.03-5.69Z" fill="#f2b3c1"></path>
    <path d="M410.15,313.39c-1.52,0-2.97-.16-4.34-.51-6.27-1.58-12.77-7.7-8.15-27.85,4.24-14.81,14.27-36.86,26.18-57.57,.86-1.65,1.91-3.65,1.96-5.45v-.02c.63-8.34-1.5-13.19-3.39-17.46-2.35-5.33-4.21-9.54,.74-17.73l.5-.83,.38,.89c.67,1.55,1.16,3.36,1.68,5.28,2.26,8.35,5.08,18.73,25.16,19.51l.86,.03-7.12,11.37c-.53,.84-.89,1.77-1.06,2.74l-10.58,58.22c1.16,1.02,6.55,5.89,9.44,10.86l.11,.18-.06,.2c-1.71,6.2-19.21,18.13-32.33,18.13Zm16.66-91.33c-.06,2.03-1.17,4.14-2.05,5.83-11.92,20.72-21.91,42.68-26.12,57.4-3.51,15.3-.95,24.51,7.42,26.63,1.33,.34,2.75,.49,4.23,.49,12.55,0,29.21-11.2,31.17-17.22-3.14-5.26-9.28-10.55-9.34-10.61l-.22-.19,.05-.28,10.63-58.5c.2-1.1,.6-2.14,1.2-3.1l6.21-9.92c-20.05-1.08-23.04-12.12-25.23-20.21-.41-1.5-.79-2.93-1.26-4.2-4.04,7.16-2.4,10.87-.17,15.93,1.84,4.17,4.12,9.35,3.47,17.93Z" fill="#002346"></path>
  </g>
  <path d="M456.11,289.26c-.14,0-.29-.06-.38-.18-2.32-2.79-3.69-8.61-3.74-8.85-2.23-8.93-7.64-19.34-7.69-19.45-.13-.25-.03-.55,.21-.67,.25-.13,.55-.03,.67,.21,.05,.11,5.51,10.62,7.78,19.68,.02,.07,1.37,5.84,3.54,8.45,.18,.21,.15,.53-.06,.7-.09,.08-.21,.12-.32,.12Z" fill="#002346"></path>
  <path d="M450.65,295.63c-.21,0-.4-.13-.47-.33-4.88-13.76-15.96-20.51-16.07-20.57-.24-.14-.31-.45-.17-.69,.14-.24,.45-.31,.69-.17,.11,.07,11.49,6.98,16.5,21.1,.09,.26-.04,.55-.3,.64-.06,.02-.11,.03-.17,.03Z" fill="#002346"></path>
  <path d="M458.84,262.41c-.19,0-.37-.11-.46-.29-1.6-3.56-4.93-7.42-7.86-10.83-3.76-4.37-7.01-8.14-6.62-10.9l3.54-11.83c.08-.26,.36-.41,.62-.34,.26,.08,.41,.36,.34,.62l-3.53,11.76c-.3,2.24,2.96,6.03,6.41,10.04,2.98,3.46,6.35,7.38,8.02,11.07,.11,.25,0,.55-.25,.66-.07,.03-.14,.04-.2,.04Z" fill="#002346"></path>
  <path d="M445.64,235.56c-.11,0-.22-.04-.32-.11l-3.6-2.96c-.21-.18-.24-.49-.07-.7,.18-.21,.49-.24,.7-.07l3.6,2.96c.21,.18,.24,.49,.07,.7-.1,.12-.24,.18-.39,.18Z" fill="#002346"></path>
  <path d="M480.68,251.03s-.07,0-.1,0c-.27-.05-.45-.32-.39-.59,2.05-10.14,5.27-14.49,7.2-17.09,2.7-3.65,3.05-4.12-5.72-14.34-.18-.21-.16-.53,.05-.71,.21-.18,.52-.16,.71,.05,8.95,10.43,8.9,11.37,5.77,15.59-2,2.7-5.02,6.77-7.02,16.69-.05,.24-.26,.4-.49,.4Z" fill="#002346"></path>
  <path d="M487.74,225.87c-.14,0-.27-.06-.37-.17-.19-.2-.17-.52,.04-.71l8.12-7.34-5.74-11.03c-.13-.24-.03-.55,.21-.67,.25-.13,.55-.03,.67,.21l5.92,11.38c.1,.2,.06,.45-.11,.6l-8.41,7.6c-.1,.09-.22,.13-.33,.13Z" fill="#002346"></path>
  <g>
    <path d="M481.13,209.13s3.12-5.75-.72-9.7c0,0-2.93-.77-8.84,.14,0,0,3.19,8.19,9.56,9.56Z" fill="#6d28d9"></path>
    <path d="M481.39,209.69l-.37-.08c-6.56-1.41-9.78-9.52-9.92-9.86l-.23-.58,.62-.09c5.95-.92,8.92-.16,9.04-.13l.13,.04,.1,.1c4.04,4.17,.83,10.22,.8,10.29l-.18,.33Zm-9.1-9.72c.84,1.81,3.73,7.29,8.56,8.58,.56-1.24,2.18-5.56-.7-8.66-.6-.12-3.23-.55-7.86,.09Z" fill="#002346"></path>
  </g>
  <path d="M516.62,246.56c-.27,0-.49-.21-.5-.48-.46-12.2,8.31-29.18,8.69-29.89,.13-.24,.43-.34,.67-.21,.25,.13,.34,.43,.21,.67-.09,.17-9.02,17.46-8.58,29.39,.01,.28-.2,.51-.48,.52,0,0-.01,0-.02,0Z" fill="#002346"></path>
  <path d="M543.63,266.51c-.15,0-.3-.07-.4-.2-.17-.22-.12-.53,.1-.7,.11-.08,10.8-8.07,23.28-5.27,.27,.06,.44,.33,.38,.6-.06,.27-.32,.44-.6,.38-12.02-2.69-22.35,5.01-22.45,5.09-.09,.07-.2,.1-.3,.1Z" fill="#002346"></path>
  <g>
    <path d="M577.15,271.47s5.58,4.99-2.72,12.03l-6.84-13.85s5.92-.46,9.56,1.82Z" fill="#6d28d9"></path>
    <path d="M574.27,284.29l-7.45-15.09,.74-.06c.25-.02,6.12-.44,9.86,1.89l.07,.05c.08,.07,2.04,1.86,2,4.83-.03,2.65-1.62,5.32-4.73,7.96l-.49,.41Zm-5.89-14.18l6.21,12.58c2.55-2.29,3.86-4.56,3.89-6.77,.04-2.33-1.42-3.84-1.64-4.06-2.71-1.67-6.79-1.78-8.46-1.75Z" fill="#002346"></path>
  </g>
  <path d="M392.82,569.21c-.05,0-.11,0-.16-.03l-65.37-22.34c-.26-.09-.4-.37-.31-.63,.09-.26,.37-.4,.63-.31l65.37,22.34c.26,.09,.4,.37,.31,.63-.07,.21-.27,.34-.47,.34Z" fill="#002346"></path>
  <path d="M372.83,562.15s-.07,0-.11-.01c-.27-.06-.44-.33-.38-.6l20.48-94.07c.06-.27,.32-.44,.6-.38,.27,.06,.44,.33,.38,.6l-20.48,94.07c-.05,.23-.26,.39-.49,.39Z" fill="#002346"></path>
  <path d="M405.6,530.88c-.14,0-.28-.06-.38-.17-.14-.16-.16-.4-.06-.58,.1-.87-1.21-6.57-2.74-13.17-7.35-31.81-24.55-106.31-3.04-122.14,.03-.02,.06-.04,.08-.05,3.56-1.71,35.45-16.8,71.09-25.06,.27-.06,.54,.11,.6,.37,.06,.27-.11,.54-.37,.6-35.52,8.23-67.3,23.26-70.84,24.97-20.92,15.5-3.83,89.48,3.46,121.08,2.83,12.24,3.06,13.55,2.53,14.02-.09,.08-.21,.12-.33,.12Zm-.33-.88h0s0,0,0,0Z" fill="#002346"></path>
  <path d="M416.31,573.87c-.22,0-.42-.14-.48-.36-.07-.27,.08-.54,.35-.62l73.55-20.64c.27-.07,.54,.08,.62,.35,.07,.27-.08,.54-.35,.62l-73.55,20.64s-.09,.02-.14,.02Z" fill="#002346"></path>
  <g>
    <path d="M376.48,615.93l2.28-8.65s-6.83-8.19-37.77-14.11l-4.1,5.92s5.01,5.01-1.37,11.83c-2.38,7.98,18.58,17.08,40.95,5.01Z" fill="#e6e7e8"></path>
    <path d="M354.34,622.3c-6.96,0-12.84-1.83-16.42-4.75-2.54-2.06-3.56-4.47-2.87-6.77l.03-.11,.08-.09c5.95-6.37,1.57-10.95,1.38-11.14l-.29-.29,4.52-6.53,.32,.06c30.76,5.88,37.77,13.94,38.06,14.28l.17,.2-2.4,9.1-.19,.1c-7.76,4.19-15.59,5.93-22.38,5.93Zm-18.37-11.12c-.5,1.86,.42,3.84,2.58,5.6,5.43,4.41,20.38,7.97,37.5-1.18l2.15-8.17c-1.23-1.22-9.45-8.39-36.99-13.7l-3.69,5.33c1,1.25,4.04,6.05-1.55,12.11Z" fill="#002346"></path>
  </g>
  <g>
    <path d="M454.79,211.3c-12.2,3.61-25.02-3.36-28.62-15.56-5.78-18.01-15.09-41.1,9.37-49.57,12.2-3.61,25.02,3.36,28.62,15.56,5.78,18.01,15.09,41.1-9.37,49.57Z" fill="#f2b3c1"></path>
    <path d="M448.27,212.75c-10.16,0-19.56-6.64-22.58-16.87-.35-1.08-.71-2.19-1.08-3.31-5.65-17.27-12.68-38.75,10.76-46.88,6.05-1.79,12.41-1.12,17.94,1.89,5.52,3,9.55,7.98,11.33,14.01,.35,1.08,.71,2.19,1.08,3.31,5.65,17.27,12.68,38.75-10.76,46.87h-.02c-2.22,.66-4.46,.98-6.66,.98Zm-6.17-67.03c-2.15,0-4.31,.31-6.42,.94-22.49,7.79-15.92,27.88-10.12,45.61,.37,1.12,.73,2.23,1.08,3.33,3.53,11.92,16.08,18.75,28,15.24,22.5-7.8,15.93-27.89,10.13-45.61-.37-1.12-.73-2.23-1.08-3.33-1.71-5.78-5.56-10.55-10.85-13.42-3.35-1.82-7.02-2.75-10.73-2.75Z" fill="#002346"></path>
  </g>
  <g>
    <path d="M467.13,171.91c-2.86,.42-6.91-6.11-11.07-8.79-5.36-3.44-8.7-6.91-16.2-6.26-4.23-.88-8.09-7.83-13.99-2.95-4.64,7-5.09,13.18-2.72,31.54,0,0-26.19-30.94,4.75-41.86,.46,0,11.38-19.11,30.49-8.65,0,0,25.03,3.19,30.49,27.76,.46,.46,21.29,10.95,19.47,46.89l-18.11-3.21c-3.76-4.64-8.91-8.56-18.66-6.83l-1.24-3.69c2.53-4.03-.6-16.85-3.21-23.97" fill="#002346"></path>
    <path d="M508.81,210.2l-18.85-3.34-.12-.15c-3.46-4.27-8.33-8.4-18.18-6.65l-.42,.08-1.45-4.32,.13-.2c2.31-3.68-.41-15.64-3.13-23.19-1.83-.05-3.81-2.11-6.09-4.46-1.6-1.65-3.25-3.35-4.91-4.42-.91-.58-1.76-1.16-2.58-1.73-4.05-2.78-7.25-4.98-13.31-4.45h-.07s-.07,0-.07,0c-1.46-.31-2.82-1.24-4.25-2.23-2.87-1.99-5.59-3.87-9.26-.87-4.5,6.82-4.98,12.67-2.6,31.14l.22,1.68-1.09-1.29c-.55-.65-13.4-16.03-9.86-29.1,1.65-6.08,6.61-10.63,14.74-13.52,.09-.1,.22-.29,.42-.54,10.93-14.48,22.59-12.44,30.48-8.14,1.72,.26,25.39,4.26,30.77,27.94,.04,.02,.09,.05,.14,.09,6.34,3.96,20.93,16.48,19.38,47.13l-.03,.57Zm-18.31-4.26l17.36,3.08c1.32-29.71-12.78-41.82-18.94-45.67-.26-.16-.34-.21-.41-.28l-.1-.1-.03-.14c-5.32-23.93-29.82-27.34-30.06-27.37l-.18-.06c-7.54-4.13-18.75-6.13-29.28,7.83-.49,.65-.63,.84-.86,.87-7.82,2.77-12.58,7.09-14.13,12.84-2.8,10.35,5.47,22.67,8.55,26.78-2.13-17.22-1.47-23.3,3.03-30.08l.1-.11c4.28-3.54,7.6-1.25,10.52,.78,1.32,.91,2.57,1.78,3.81,2.06,6.36-.53,9.86,1.86,13.89,4.63,.81,.56,1.65,1.13,2.55,1.71,1.76,1.13,3.45,2.88,5.09,4.57,2.07,2.14,4.22,4.35,5.64,4.15l.4-.06,.14,.38c2.6,7.07,5.73,19.75,3.29,24.2l1.03,3.07c10.02-1.64,15.2,2.79,18.59,6.93Z" fill="#002346"></path>
  </g>
  <g>
    <path d="M470.34,195.88s2.6,11.42,10.79,13.24c-3.84,9.38-8.86,11.02-8.19,24.57-1.73,.27-18.2-.79-19.11,.91l-7.51-22.46s15.84,2.57,24.02-16.27Z" fill="#f2b3c1"></path>
    <path d="M453.72,235.87l-.36-1.11-7.77-23.24,.82,.13c.63,.1,15.56,2.27,23.48-15.97l.61-1.4,.34,1.49c.03,.11,2.63,11.14,10.41,12.87l.58,.13-.22,.55c-1.22,2.97-2.57,5.21-3.77,7.2-2.7,4.47-4.83,8-4.38,17.16l.02,.45-.44,.07c-.53,.08-2.08,.06-4.76,0-3.96-.08-13.22-.27-14,.66l-.55,1.02Zm-6.67-23.16l7.06,21.11c1.72-.73,6.28-.79,14.19-.63,1.77,.04,3.34,.07,4.14,.04-.36-9.12,1.92-12.89,4.55-17.24,1.16-1.92,2.36-3.9,3.48-6.53-6.37-1.8-9.27-9.07-10.22-12.13-7.29,15.3-19.9,15.59-23.19,15.38Z" fill="#002346"></path>
  </g>
  <path d="M449.22,177.2c1,4.01-3.51,5.09-4.43,1.06-1-4.01,3.51-5.09,4.43-1.06Z" fill="#002346"></path>
  <path d="M428.74,182.66c1,4.01-3.51,5.09-4.43,1.06-1-4.01,3.51-5.09,4.43-1.06Z" fill="#002346"></path>
  <path d="M435.18,196.43c-.11,0-.22-.04-.31-.1-.11-.09-.18-.22-.19-.36l-.91-12.74c-.02-.28,.19-.51,.46-.53,.28-.02,.51,.19,.53,.46l.87,12.19,4.46-.81c.27-.05,.53,.13,.58,.4,.05,.27-.13,.53-.4,.58l-5.01,.91s-.06,0-.09,0Z" fill="#002346"></path>
  <path d="M436.15,200.24l11.22-2.71c.47-.11,.9,.31,.79,.78-.47,3.04-3.25,9.71-7.79,6.97-.47-.46-5.89-3.43-4.22-5.04Z" fill="#fff"></path>
  <path d="M454.29,170.04c-.08,0-.15-.02-.22-.05-5.24-2.62-10.98-1.34-11.04-1.33-.27,.06-.54-.11-.6-.38-.06-.27,.11-.54,.38-.6,.25-.06,6.16-1.37,11.71,1.41,.25,.12,.35,.42,.22,.67-.09,.18-.26,.28-.45,.28Z" fill="#002346"></path>
  <path d="M421.9,174.78c-.13,0-.27-.05-.36-.16-.19-.2-.18-.52,.02-.71,1.77-1.66,5.06-3.38,5.2-3.45,.25-.13,.55-.03,.67,.21,.13,.25,.03,.55-.21,.67-.03,.02-3.31,1.73-4.98,3.3-.1,.09-.22,.14-.34,.14Z" fill="#002346"></path>
  <g>
    <path d="M480.21,175.69c-.66,11.5-14.53,10.56-13.62-.93,.66-11.5,14.53-10.56,13.62,.93Z" fill="#f2b3c1"></path>
    <path d="M473.24,184.35c-1.32,0-2.64-.39-3.77-1.15-2.44-1.65-3.67-4.74-3.38-8.48,.21-3.73,1.85-6.62,4.5-7.93,2.16-1.07,4.75-.89,6.75,.46,2.44,1.65,3.67,4.74,3.38,8.47-.22,3.74-1.85,6.63-4.5,7.94-.94,.46-1.96,.69-2.97,.69Zm.32-17.26c-.86,0-1.73,.2-2.53,.59-2.31,1.14-3.75,3.73-3.94,7.1-.27,3.38,.8,6.14,2.94,7.58,1.7,1.15,3.9,1.3,5.74,.39,2.31-1.14,3.75-3.73,3.94-7.1h0c.27-3.38-.81-6.14-2.94-7.58-.96-.65-2.08-.98-3.21-.98Z" fill="#002346"></path>
  </g>
  <path d="M430.77,297.22s-.04,0-.07,0c-.27-.04-.47-.29-.43-.56l1.68-12.52c.04-.27,.29-.47,.56-.43,.27,.04,.47,.29,.43,.56l-1.68,12.52c-.03,.25-.25,.43-.5,.43Z" fill="#002346"></path>
  <g>
    <path d="M451.5,238.85c.07-2.42,2.27-5.38,5.32-5.15,0,0,23.86,0,23.86,0,0,0,7.1-1.25,6.49,5.45-.05,.53-.16,1.04-.29,1.55l-7.16,27.03c-.51,1.93-2.26,3.28-4.26,3.28-3.51-.65-15.13,2.13-16.2-3.15-.55-2.85-8.71-26.58-7.77-29.01Z" fill="#c4b5fd"></path>
    <path d="M466.96,271.67c-3.83,0-7.55-.61-8.18-3.71-.17-.86-1.06-3.72-2.19-7.35-3.37-10.81-6.12-19.93-5.59-21.85,.07-1.51,.85-3.12,2.07-4.21,1.1-.99,2.41-1.45,3.79-1.35v.06c.53-.06,1.58-.06,3.69-.06h20.14c.06-.02,3.48-.6,5.55,1.3,1.14,1.05,1.63,2.63,1.44,4.69-.05,.5-.14,1.02-.31,1.64l-7.16,27.03c-.57,2.15-2.52,3.65-4.74,3.65-1.03-.18-2.65-.09-4.52,.01-1.25,.07-2.63,.15-3.99,.15Zm-10.45-37.48c-1.27,0-2.2,.59-2.77,1.11-1.02,.92-1.7,2.32-1.74,3.57l-.03,.17c-.58,1.51,3.43,14.37,5.58,21.28,1.14,3.65,2.04,6.54,2.21,7.45,.68,3.35,6.72,3.01,11.13,2.76,1.94-.11,3.61-.2,4.67,0,1.68,0,3.23-1.2,3.68-2.91l7.16-27.03c.15-.56,.24-1.03,.28-1.47,.16-1.73-.22-3.03-1.12-3.86-1.71-1.57-4.76-1.05-4.79-1.05-.09,0-23.79,0-23.95,0-.1,0-.21-.01-.31-.01Z" fill="#002346"></path>
  </g>
  <g>
    <path d="M475.67,641.86l1.37,8.19c-1.85,3.2-75,1.26-86.91,1.36,0,0-22.75,1.37-17.29-9.1,25.92,1.16,71.01-1.24,96.92-3.64l5.92,3.19Z" fill="#fff"></path>
    <path d="M442.9,652.4c-10.25,0-22.62-.12-36.92-.32-7.36-.1-13.17-.18-15.85-.16v-.03c-2.13,.48-12.12,.14-16.23-2.57-1.8-1.18-3.51-3.4-1.51-7.24l.15-.28h.32c26.75,1.21,72.74-1.39,96.85-3.62h.15s6.26,3.36,6.26,3.36l1.43,8.61-.09,.15c-.89,1.55-13.06,2.09-34.58,2.09Zm-51.61-1.48c3.04,0,8.29,.07,14.71,.16,21.93,.3,67.22,.92,70.51-1.2l-1.28-7.69-5.57-3c-24.08,2.22-69.73,4.8-96.52,3.64-.83,1.72-.87,3.13-.11,4.29,2.49,3.83,13.17,4.04,17.07,3.8,.35,0,.74,0,1.19,0Z" fill="#002346"></path>
  </g>
  <g>
    <path d="M415.15,614.11c-5.85,3.9-24.72,20.75-31.58,21.97-5.11,1.42-12.66,4.21-10.14,7.79,11.43,4.61,68.86,7.74,102.24-2l-5.01-22.3-13.2-5.46s-33.67-5.01-42.32,0Z" fill="#6d28d9"></path>
    <path d="M419.03,648.74c-21.34,0-39.99-2.08-45.78-4.41l-.14-.06-.09-.12c-.6-.85-.75-1.73-.43-2.6,.77-2.17,4.42-4.17,10.85-5.96,4.74-.85,15.5-9.43,23.37-15.7,3.39-2.7,6.31-5.03,8.07-6.2l.03-.02c8.7-5.03,41.26-.27,42.64-.06l.12,.03,13.44,5.56,5.17,23.01-.45,.13c-16.13,4.71-37.55,6.39-56.78,6.39Zm-45.27-5.28c11.22,4.36,67.56,7.73,101.32-1.94l-4.85-21.58-12.9-5.34c-1.61-.23-33.67-4.81-41.92-.06-1.73,1.15-4.63,3.47-7.99,6.14-8.39,6.69-18.83,15.01-23.77,15.89-5.87,1.64-9.49,3.53-10.13,5.32-.18,.52-.11,1.03,.23,1.57Z" fill="#002346"></path>
  </g>
  <g>
    <path d="M470.67,619.57l-5.46-19.57s-9.1,7.28-40.95,4.55l-9.1,9.56c25.92-4.38,15.94,35.66,55.51,5.46Z" fill="#e6e7e8"></path>
    <path d="M447.27,631.44c-6.13,0-9.55-4.03-13.07-8.18-4.33-5.1-8.81-10.38-18.96-8.66l-1.48,.25,10.3-10.82,.24,.02c31.29,2.68,40.51-4.37,40.6-4.44l.59-.47,5.75,20.62-.27,.21c-11.12,8.48-18.42,11.47-23.7,11.47Zm-28.34-18.17c8.1,0,12.28,4.93,16.03,9.34,6.49,7.65,12.09,14.26,35.13-3.24l-5.18-18.57c-2.49,1.53-13,6.58-40.46,4.27l-7.95,8.34c.85-.09,1.66-.14,2.43-.14Z" fill="#002346"></path>
  </g>
  <rect x="279.32" y="490.89" width="321.27" height="1" transform="translate(-78.37 899.26) rotate(-86.36)" fill="#002346"></rect>
  <rect x="272.33" y="358.13" width="303.28" height="1" fill="#002346"></rect>
  <path d="M473.41,178.17c-.28,0-.5-.22-.5-.5v-5.46c0-.28,.22-.5,.5-.5s.5,.22,.5,.5v5.46c0,.28-.22,.5-.5,.5Z" fill="#002346"></path>
  <g>
    <rect x="321.09" y="354.27" width="48.62" height="4.08" fill="#002346"></rect>
    <path d="M370.21,358.84h-49.62v-5.08h49.62v5.08Zm-48.62-1h47.62v-3.08h-47.62v3.08Z" fill="#002346"></path>
  </g>
  <g>
    <g>
      <path d="M98.17,564.12s0,7.82,1.38,16.11c0,0,9.48-31.02,40.64-27.02l-6.12-13.48-5.06-5.06c-12.51,6.49-24.52,2.59-30.84,29.46Z" fill="#7cd295"></path>
      <path d="M99.4,582.41l-.35-2.1c-1.37-8.23-1.39-16.11-1.39-16.19v-.11c4.88-20.72,13.38-23.47,22.37-26.38,2.84-.92,5.78-1.87,8.73-3.4l.33-.17,5.42,5.47,6.49,14.3-.89-.11c-30.35-3.9-40,26.36-40.1,26.67l-.62,2.03Zm-.74-18.23c0,.67,.07,7.02,1.08,14.07,2.66-6.59,13.51-28.48,39.62-25.64l-5.72-12.59-4.74-4.74c-2.91,1.47-5.78,2.4-8.56,3.3-9.09,2.94-16.94,5.48-21.68,25.6Z" fill="#002346"></path>
    </g>
    <g>
      <path d="M186.44,542.86c-28.12,.03-32.32-41.41-3.91-75.9,.09-.11,.27-.04,.26,.11-1.12,11.76,33.4,53.9,10.78,73.19-1.99,1.69-4.51,2.6-7.12,2.6Z" fill="#7cd295"></path>
      <path d="M186.41,543.36c-9.32,0-16.61-4.58-20.54-12.89-7.79-16.49-1.1-42.73,16.27-63.83,.18-.22,.48-.3,.74-.19,.27,.11,.42,.38,.4,.66-.34,3.56,2.87,10.34,6.59,18.19,8.36,17.67,19.82,41.86,4.01,55.33-2.05,1.75-4.7,2.72-7.44,2.72h-.03Zm-4.14-75.3c-19.4,24.04-21.67,48.91-15.5,61.97,3.76,7.95,10.73,12.32,19.64,12.32h.03c2.51,0,4.92-.88,6.8-2.48,15.22-12.98,3.96-36.77-4.27-54.15-3.6-7.6-6.51-13.74-6.7-17.67Z" fill="#002346"></path>
    </g>
    <g>
      <path d="M184.74,527.38c-17.74-10.53-13.74-42.1,38.83-60.73,.1-.03,.2,.06,.16,.15-.6,1.71-4.08,12.88-5.91,44.4-.49,8.4-12.49,28.4-33.08,16.17Z" fill="#7cd295"></path>
      <path d="M197.24,531.72c-3.61,0-7.88-1.02-12.75-3.91-6.92-4.11-10.43-11.09-9.64-19.17,1.6-16.38,19.76-32.25,48.56-42.46,.23-.08,.48-.02,.65,.15,.17,.17,.23,.42,.15,.64-.66,1.91-4.07,13.02-5.88,44.26-.28,4.88-4.43,14.08-12.44,18.34-2.2,1.17-5.1,2.15-8.64,2.15Zm25.78-64.34c-28.01,10.08-45.63,25.51-47.18,41.36-.75,7.67,2.59,14.31,9.15,18.21,7.32,4.35,14.38,4.95,20.42,1.74,7.34-3.9,11.63-12.68,11.91-17.51,1.66-28.6,4.67-40.46,5.7-43.8Z" fill="#002346"></path>
    </g>
    <g>
      <path d="M203.1,596.57c.8,6.21-41.3,6.21-40.5,0-.8-6.21,41.3-6.21,40.5,0Z" fill="#002346"></path>
      <path d="M182.85,601.75c-8.13,0-16.26-.98-19.34-2.93-1.02-.65-1.5-1.41-1.42-2.25-.08-.84,.4-1.6,1.42-2.25,6.15-3.9,32.53-3.9,38.67,0,1.02,.65,1.5,1.41,1.42,2.25,.08,.84-.4,1.6-1.42,2.25-3.07,1.95-11.2,2.93-19.33,2.93Zm0-9.35c-7.95,0-15.9,.92-18.8,2.76-.69,.44-1.02,.89-.96,1.34v.06s0,.06,0,.06c-.06,.45,.26,.9,.96,1.34,5.8,3.68,31.8,3.69,37.59,0,.69-.44,1.02-.89,.96-1.34v-.06s0-.06,0-.06c.06-.45-.26-.9-.96-1.34-2.9-1.84-10.85-2.76-18.8-2.76Z" fill="#002346"></path>
    </g>
    <g>
      <path d="M204.76,651.57c-1.82-.27-48.18,.79-48.29-.86-9.13-4.33-9.52-18.47-9.52-18.47-1.38-18.87,15.65-28.99,15.65-28.99v-6.67c-.8,6.21,41.3,6.21,40.5,0v7.13c22.29,14.63,17.77,46.38,1.66,47.86Z" fill="#6d28d9"></path>
      <path d="M177.64,652.15c-16.11,0-20.39-.34-21.39-.99-9.29-4.42-9.78-18.31-9.8-18.9-1.29-17.69,13.55-27.93,15.65-29.28v-6.01c-.02-.15-.02-.3,0-.45l1,.06v.3c.06,.37,.38,.74,.95,1.11,5.8,3.68,31.8,3.68,37.59,0,.57-.36,.89-.73,.95-1.11v-.3l1-.06c.02,.15,.02,.31,0,.45v6.48c13.65,9.1,17.04,24.56,14.4,35.14-1.96,7.87-6.9,12.92-13.19,13.5h-.06s-.06,0-.06,0c-.5-.08-5.28-.04-10.81,0-6.43,.05-11.79,.08-16.24,.08Zm-20.68-1.69c2.37,.89,24.76,.71,36.91,.61,6.59-.05,10.17-.08,10.9,0,5.83-.56,10.41-5.32,12.26-12.74,2.57-10.3-.78-25.4-14.21-34.21l-.23-.15v-5.45c-.13,.1-.26,.2-.42,.29-6.14,3.9-32.52,3.91-38.67,0-.15-.1-.29-.19-.42-.3v5l-.24,.15c-.17,.1-16.75,10.2-15.41,28.53,0,.16,.5,13.91,9.24,18.06l.26,.13v.08Z" fill="#002346"></path>
    </g>
    <path d="M184.39,607.34c-12.38,0-21.83-3.57-21.97-3.63l.36-.93c.2,.08,20.32,7.67,40.15,.46l.34,.94c-6.49,2.36-13.01,3.16-18.88,3.16Z" fill="#002346"></path>
    <path d="M204.48,611.99c.05,3.58-5.58,3.58-5.52,0-.05-3.58,5.58-3.58,5.52,0Z" fill="#fff"></path>
    <path d="M212.77,620.27c.05,3.58-5.58,3.58-5.52,0-.05-3.58,5.58-3.58,5.52,0Z" fill="#fff"></path>
    <path d="M214.15,633.62c.05,3.58-5.58,3.58-5.52,0-.05-3.58,5.58-3.58,5.52,0Z" fill="#fff"></path>
    <path d="M206.78,643.75c.05,3.58-5.58,3.58-5.52,0-.05-3.58,5.58-3.58,5.52,0Z" fill="#fff"></path>
    <path d="M184.23,646.51c.05,3.58-5.58,3.58-5.52,0-.05-3.58,5.58-3.58,5.52,0Z" fill="#fff"></path>
    <path d="M166.74,643.75c.05,3.58-5.58,3.58-5.52,0-.05-3.58,5.58-3.58,5.52,0Z" fill="#fff"></path>
    <path d="M157.08,635.92c.05,3.58-5.58,3.58-5.52,0-.05-3.58,5.58-3.58,5.52,0Z" fill="#fff"></path>
    <path d="M158.46,620.27c.05,3.58-5.58,3.58-5.52,0-.05-3.58,5.58-3.58,5.52,0Z" fill="#fff"></path>
    <path d="M168.58,611.07c.05,3.58-5.58,3.58-5.52,0-.05-3.58,5.58-3.58,5.52,0Z" fill="#fff"></path>
    <path d="M177.79,619.35c.05,3.58-5.58,3.58-5.52,0-.05-3.58,5.58-3.58,5.52,0Z" fill="#fff"></path>
    <path d="M167.2,626.72c.05,3.58-5.58,3.58-5.52,0-.05-3.58,5.58-3.58,5.52,0Z" fill="#fff"></path>
    <path d="M176.41,635.92c.05,3.58-5.58,3.58-5.52,0-.05-3.58,5.58-3.58,5.52,0Z" fill="#fff"></path>
    <path d="M186.53,628.1c.05,3.58-5.58,3.58-5.52,0-.05-3.58,5.58-3.58,5.52,0Z" fill="#fff"></path>
    <path d="M188.37,612.45c.05,3.58-5.58,3.58-5.52,0-.05-3.58,5.58-3.58,5.52,0Z" fill="#fff"></path>
    <path d="M196.66,622.11c.05,3.58-5.58,3.58-5.52,0-.05-3.58,5.58-3.58,5.52,0Z" fill="#fff"></path>
    <path d="M203.1,628.56c.05,3.58-5.58,3.58-5.52,0-.05-3.58,5.58-3.58,5.52,0Z" fill="#fff"></path>
    <path d="M193.9,637.76c.05,3.58-5.58,3.58-5.52,0-.05-3.58,5.58-3.58,5.52,0Z" fill="#fff"></path>
    <path d="M187.45,595.92c-.27,0-.49-.22-.5-.49-1.19-51.21,8.26-83,16.4-100.64,8.85-19.18,17.85-26.11,18.23-26.4,.22-.17,.53-.12,.7,.1,.17,.22,.12,.53-.1,.7-.09,.07-9.23,7.12-17.97,26.11-8.07,17.54-17.45,49.16-16.26,100.11,0,.28-.21,.51-.49,.51h-.01Z" fill="#002346"></path>
    <g>
      <path d="M227.95,565.51c-15.18-12.36-36.76,4.61-15.19,25.77,0,0,11.05,10.12,15.65,20.71,0,0,21.17-15.19,21.63-35.9,0,0,0-21.17-22.09-10.59Z" fill="#7cd295"></path>
      <path d="M228.2,612.76l-.25-.57c-4.5-10.35-15.42-20.44-15.52-20.54-11.65-11.43-10.55-21.33-6.07-26.34,4.48-5.01,13.56-6.81,21.66-.39,7.1-3.35,12.71-3.78,16.67-1.28,5.78,3.64,5.85,12.1,5.85,12.46-.46,20.73-21.63,36.15-21.84,36.3l-.5,.36Zm-15.13-21.79c1.85,1.42,11.26,10.9,15.54,20.25,3.17-2.44,20.52-16.67,20.93-35.13,0-.07-.07-8.26-5.39-11.6-3.7-2.33-9.08-1.83-15.99,1.48l-.29,.14-.25-.2c-7.69-6.26-16.32-4.63-20.53,.08-4.19,4.68-5.12,14.02,6.01,24.95l-.04,.04Z" fill="#002346"></path>
    </g>
    <path d="M229.37,609.87l-.99-.16c4.37-26.48,1-47.12-9.02-55.2-4.05-3.26-8.88-4.03-13.61-2.16-8.93,3.54-15.84,15.59-18.04,31.46l-.99-.14c2.28-16.47,9.26-28.53,18.66-32.26,5.08-2.01,10.26-1.19,14.6,2.31,10.31,8.31,13.81,29.3,9.38,56.14Z" fill="#002346"></path>
    <g>
      <path d="M98.17,564.12c23.85-42.04,34.98,.01,70.88-5.98,.54-48.33-70.35-45.12-70.88,5.98Z" fill="#7cd295"></path>
      <path d="M97.65,566.05l.02-1.94c.16-15.82,7.35-28.89,19.7-35.85,11.63-6.55,26.08-6.68,36.8-.33,10.06,5.96,15.52,16.69,15.37,30.21v.42s-.42,.07-.42,.07c-14.57,2.43-24.88-2.85-33.98-7.5-13.06-6.68-22.5-11.51-36.54,13.24l-.96,1.68Zm38.81-41.79c-6.35,0-12.83,1.63-18.6,4.88-6.85,3.86-18.23,13.21-19.14,33.03,14-23.63,24.13-18.45,36.88-11.93,8.87,4.54,18.93,9.68,32.95,7.47,.03-12.95-5.24-23.21-14.88-28.92-5.11-3.03-11.1-4.54-17.2-4.54Z" fill="#002346"></path>
    </g>
    <path d="M176.91,595.44l-1-.04c1.29-31.63-13.06-47.58-21.74-54.28-11.35-8.76-25.61-11.7-38.14-7.86l-.29-.96c12.84-3.94,27.44-.94,39.05,8.02,8.83,6.81,23.44,23.03,22.13,55.11Z" fill="#002346"></path>
  </g>
  <path d="M469.96,230.01c-.11,0-.21-.03-.3-.1-.52-.37-2.47-7.86-1.16-13.54,.51-2.2,1.42-3.93,2.73-5.16-.55-.73-.99-1.59-1.28-2.56-1.13-3.69,.06-8.6,5.24-11.25,.24-.13,.55-.03,.67,.22,.13,.25,.03,.55-.22,.67-4.67,2.4-5.75,6.79-4.74,10.07,.24,.78,.61,1.54,1.11,2.2,1.02-.73,2.24-1.23,3.65-1.47,1.41-.1,2.3,.85,2.58,1.82,.33,1.12-.1,2.23-1.08,2.78-.06,.03-.12,.05-.18,.06-1.93,.23-3.73-.44-5.09-1.78-.64,.61-1.18,1.37-1.61,2.25-2.55,5.28-.46,13.85,.04,14.93,.02,.02,.04,.05,.06,.08,.14,.24,.07,.54-.17,.69-.08,.05-.17,.07-.26,.07Zm2.73-18.67c1.03,1,2.42,1.61,4.08,1.45,.61-.39,.68-1.06,.53-1.57-.17-.59-.71-1.17-1.51-1.11-1.18,.2-2.22,.62-3.1,1.24Z" fill="#fff"></path>
  <path d="M490.88,261.29s-.04,0-.06,0l-9-1c-.27-.03-.47-.28-.44-.55,.03-.27,.28-.47,.55-.44l8.54,.95,3.81-20.02-7.47-.93c-.27-.03-.47-.28-.43-.56,.03-.27,.28-.47,.56-.43l8,1c.14,.02,.26,.09,.34,.2,.08,.11,.11,.25,.09,.39l-4,21c-.05,.24-.25,.41-.49,.41Z" fill="#002346"></path>
  <g>
    <path d="M489.78,246.44c-.08-.07-2.08-4.52,3.04-7.26-.77,.11-4.31,.4-3.5-3.66l10.47,1.37c5.69-.88,44.93,31.06,52.78,36.86,0,0,4.55-3.64,15.02-4.1,2.04,6.09,14.26,24.18,12.31,30.93-2.2,13.74-27.39,21.37-45.99-1.8-10.36-14.81-20.12-26.9-23.41-30.9-1.55-2.74-12.93-.19-15.32-.55-2.8,.11-11.18-.23-6.32-4.5,0,0-5.46-5.46,0-8.65,0,0-2.73-4.1,.91-7.74Z" fill="#f2b3c1"></path>
    <path d="M561.1,314.07c-8.35,0-18.67-3.9-27.57-14.99-10.23-14.62-19.77-26.48-23.4-30.9-.95-1.66-6.95-1.02-10.54-.64-2.04,.22-3.66,.39-4.47,.27-.65,.03-7.17,.23-8.11-2.12-.34-.85,.04-1.81,1.16-2.9-.77-.89-2.49-3.17-2.19-5.52,.17-1.3,.92-2.39,2.22-3.27-.6-1.2-1.87-4.57,.99-7.67-.22-.57-.43-1.53-.34-2.56,.1-1.18,.62-2.75,2.33-4.12-.6-.11-1.24-.36-1.72-.87-.71-.75-.92-1.89-.63-3.37l.09-.46,10.87,1.42c4.56-.5,25.71,15.67,45.18,30.86,3.33,2.6,6,4.68,7.6,5.88,1.21-.83,5.89-3.58,14.99-3.97l.38-.02,.12,.36c.64,1.9,2.29,5.01,4.22,8.62,4.23,7.94,9.49,17.81,8.1,22.61-.94,5.86-5.93,10.7-13.03,12.58-1.9,.5-4.01,.79-6.26,.79Zm-55.1-47.99c2.51,0,4.29,.38,4.94,1.54,3.59,4.36,13.15,16.24,23.38,30.86,10.98,13.68,24.13,16.12,32.77,13.84,6.71-1.77,11.42-6.31,12.31-11.83,1.29-4.47-4.09-14.55-8.01-21.92-1.83-3.43-3.42-6.42-4.15-8.41-9.89,.51-14.31,3.93-14.36,3.97l-.3,.24-.31-.23c-1.57-1.16-4.37-3.34-7.92-6.11-13.03-10.17-40.17-31.32-44.49-30.65h-.07s-10.06-1.3-10.06-1.3c-.11,.91,.04,1.59,.45,2.02,.73,.78,2.15,.65,2.56,.59l2.8-.39-2.49,1.33c-1.61,.86-2.64,1.98-3.04,3.33-.46,1.54,.03,2.87,.16,3.16l.36,.28-.4,.4c-3.3,3.3-.95,6.95-.85,7.11l.29,.44-.46,.27c-1.28,.75-2.01,1.69-2.15,2.79-.32,2.46,2.23,5.04,2.25,5.07l.38,.38-.4,.35c-1.01,.89-1.46,1.64-1.27,2.12,.44,1.11,4.03,1.63,7.24,1.5,.78,.11,2.5-.07,4.31-.27,2.45-.26,4.68-.47,6.52-.47Z" fill="#002346"></path>
  </g>
  <path d="M568.5,287.89c-.12,0-.24-.04-.33-.12l-14.87-13.13c-.21-.18-.23-.5-.04-.71,.18-.21,.5-.23,.71-.04l14.87,13.13c.21,.18,.23,.5,.04,.71-.1,.11-.24,.17-.38,.17Z" fill="#002346"></path>
  <path d="M502.55,241.75c-1.9,0-3.77-.82-5.37-1.53-1.75-.77-3.26-1.43-4-.69-.19,.2-.51,.2-.71,0-.2-.19-.2-.51,0-.71,1.23-1.23,3.11-.4,5.11,.48,2.35,1.03,5.01,2.21,7.42,.79,.24-.14,.54-.06,.68,.18,.14,.24,.06,.54-.18,.68-.97,.57-1.97,.8-2.96,.8Z" fill="#002346"></path>
  <path d="M497.97,248.76s-.07,0-.11-.01l-8.19-1.82c-.27-.06-.44-.33-.38-.6,.06-.27,.33-.44,.6-.38l8.19,1.82c.27,.06,.44,.33,.38,.6-.05,.23-.26,.39-.49,.39Z" fill="#002346"></path>
  <path d="M497.06,256.95s-.09,0-.13-.02l-8.19-2.27c-.27-.07-.42-.35-.35-.62s.35-.42,.62-.35l8.19,2.27c.27,.07,.42,.35,.35,.62-.06,.22-.26,.37-.48,.37Z" fill="#002346"></path>
  <path d="M497.52,264.69c-1.4,0-8.44-1.32-8.74-1.37-.27-.05-.45-.31-.4-.58,.05-.27,.31-.45,.58-.4,2.01,.38,7.47,1.36,8.55,1.36,.28,0,.5,.22,.5,.5s-.22,.5-.5,.5Z" fill="#002346"></path>
  <path d="M505.25,266.96c-.28,0-.5-.22-.5-.5,0-.26,.19-.47,.44-.5,.29-.14,1.74-1.63,.94-4.84-.06-.25,.08-.51,.33-.6,.02,0,1.8-.62,2.28-1.88,.22-.59,.13-1.22-.28-1.95-.12-.21-.07-.47,.1-.62,.01-.01,1.34-1.2,1.44-2.97,.07-1.2-.43-2.41-1.48-3.6-.18-.2-.17-.5,.02-.69h0s.97-1.18-1.41-4.35c-.17-.22-.12-.53,.1-.7,.22-.17,.53-.12,.7,.1,2.2,2.93,1.92,4.56,1.59,5.26,1.07,1.31,1.57,2.67,1.49,4.05-.1,1.64-1.02,2.85-1.5,3.36,.41,.86,.46,1.69,.17,2.46-.48,1.26-1.79,1.99-2.48,2.3,.56,2.74-.38,4.33-.83,4.9-.18,.23-.64,.75-1.12,.75Z" fill="#002346"></path>
  <rect x="54.38" y="651.79" width="757" height="1" fill="#002346"></rect>
  <g>
    <polygon points="611.47 93.91 622.32 101.01 644.38 94.62 641.63 85.17 611.47 93.91" fill="#c4b5fd"></polygon>
    <path d="M622.23,101.55l-11.95-7.82,31.69-9.19,3.02,10.41-22.77,6.6Zm-9.58-7.47l9.74,6.38,21.36-6.19-2.47-8.49-28.64,8.3Z" fill="#002346"></path>
  </g>
  <g>
    <polygon points="611.28 93.27 616.65 81.47 638.7 75.06 641.45 84.52 611.28 93.27" fill="#c4b5fd"></polygon>
    <path d="M610.38,94.05l5.91-13,22.75-6.61,3.02,10.42-31.69,9.19Zm6.63-12.17l-4.82,10.6,28.64-8.3-2.47-8.5-21.35,6.2Z" fill="#002346"></path>
  </g>
  <path d="M573.53,105.54c-.43,0-.83-.28-.96-.72-.15-.53,.15-1.09,.68-1.24l68.29-19.81c.53-.15,1.08,.15,1.24,.68,.15,.53-.15,1.09-.68,1.24l-68.29,19.81c-.09,.03-.19,.04-.28,.04Z" fill="#002346"></path>
  <path d="M108.7,330.93c-.12,0-.24-.04-.34-.13-.2-.19-.22-.5-.03-.71l21.44-23.44c.18-.2,.49-.22,.69-.04l21.03,17.74,19.11-25.7s.08-.09,.13-.12l13.81-9.07c.23-.15,.54-.09,.69,.14,.15,.23,.09,.54-.14,.69l-13.74,9.02-19.37,26.05c-.08,.11-.21,.18-.34,.2-.14,.02-.27-.03-.38-.11l-21.07-17.78-21.11,23.09c-.1,.11-.23,.16-.37,.16Z" fill="#002346"></path>
  <g>
    <polygon points="187.24 297.86 194.44 283.54 178.44 284.47 187.24 297.86" fill="#6d28d9"></polygon>
    <path d="M187.3,298.86l-9.75-14.84,17.73-1.02-7.97,15.87Zm-7.97-13.95l7.85,11.95,6.42-12.77-14.27,.82Z" fill="#002346"></path>
  </g>
  <g>
    <path d="M173.37,170.83l-16.87-9.74c-2.29-1.32-5.16,.33-5.16,2.98v19.49c0,2.65,2.87,4.31,5.16,2.98l16.87-9.75c2.29-1.33,2.29-4.64,0-5.96Z" fill="#6d28d9"></path>
    <path d="M154.77,187.51c-.68,0-1.35-.18-1.97-.53-1.23-.71-1.97-1.99-1.97-3.41v-19.49c0-1.43,.74-2.7,1.97-3.41,1.23-.71,2.71-.71,3.94,0l16.87,9.74c1.23,.71,1.97,1.99,1.97,3.41,0,1.42-.74,2.7-1.97,3.41l-16.87,9.75c-.62,.36-1.29,.53-1.97,.53Zm0-26.38c-.51,0-1.01,.13-1.47,.4-.92,.53-1.47,1.48-1.47,2.55v19.49c0,1.06,.55,2.02,1.47,2.55,.92,.53,2.02,.53,2.94,0l16.87-9.75c.92-.53,1.47-1.48,1.47-2.55,0-1.06-.55-2.02-1.47-2.55l-16.87-9.74c-.46-.27-.97-.4-1.47-.4Z" fill="#002346"></path>
  </g>
  <g>
    <g>
      <path d="M564.09,570.88l97.15-.22c3.42-.02,6.38,2.34,7.14,5.67l13.73,60.43c1.81,7.98-4.25,15.58-12.43,15.59l-102.75,.11-2.85-81.58Z" fill="#6d28d9"></path>
      <path d="M566.45,652.96l-2.88-82.58,97.67-.22c3.69,0,6.81,2.48,7.63,6.06l13.73,60.43c.9,3.95-.04,8.04-2.56,11.21-2.53,3.17-6.3,4.99-10.36,5l-103.23,.11Zm-1.85-81.58l2.81,80.58,102.26-.11c3.75,0,7.24-1.69,9.58-4.62,2.34-2.93,3.2-6.71,2.37-10.36l-13.73-60.43c-.71-3.11-3.43-5.28-6.62-5.28h-.03l-96.64,.22Z" fill="#002346"></path>
    </g>
    <g>
      <path d="M573.11,652.33h-18.33c-2.35,0-4.65-.73-6.52-2.14-3.28-2.49-6.81-7.7-4.47-18.33l13.44-56.31c1.38-6.24,10.23-6.44,11.9-.28l14.95,58.83c1.11,4.11,.74,8.51-1.21,12.3-.07,.13-.14,.27-.21,.4-1.9,3.45-5.59,5.53-9.53,5.53Z" fill="#002346"></path>
      <path d="M573.11,652.84h-18.33c-2.49,0-4.92-.8-6.82-2.25-3.44-2.61-7.04-7.99-4.66-18.84l13.44-56.32c.68-3.07,3.16-5.1,6.32-5.17,3.12-.08,5.73,1.84,6.55,4.88l14.95,58.84c1.17,4.32,.73,8.82-1.25,12.65-.07,.14-.15,.28-.22,.42-1.97,3.57-5.79,5.79-9.97,5.79Zm-9.91-81.58s-.09,0-.13,0c-2.04,.05-4.66,1.23-5.36,4.4l-13.44,56.32c-2.27,10.32,1.08,15.38,4.29,17.82,1.74,1.32,3.95,2.04,6.22,2.04h18.33c3.82,0,7.31-2.02,9.1-5.28,.07-.13,.14-.26,.21-.39,1.86-3.61,2.28-7.85,1.17-11.94l-14.95-58.84c-.83-3.06-3.41-4.14-5.43-4.14Z" fill="#002346"></path>
    </g>
    <g>
      <path d="M577.71,560.97h-23.03s1.02-3.97,5.37-6.46c6.5-3.72,14.9-.97,17.51,6.05,.05,.14,.1,.27,.14,.41Z" fill="#002346"></path>
      <path d="M578.4,561.47h-24.37l.16-.62c.04-.17,1.13-4.21,5.6-6.77,3.33-1.91,7.29-2.25,10.87-.96,3.42,1.24,6.11,3.89,7.36,7.27,.05,.14,.1,.28,.15,.43l.22,.66Zm-23.02-1h21.61c-1.19-2.98-3.61-5.31-6.66-6.41-3.3-1.2-6.96-.87-10.03,.89-3.09,1.77-4.44,4.35-4.91,5.53Z" fill="#002346"></path>
    </g>
    <g>
      <path d="M566.32,552.8h49.52s8.74,4.53,13.53,17.99h-50.51s2.32-17.24-12.54-17.99Z" fill="#fff"></path>
      <path d="M630.08,571.29h-51.79l.08-.57c.01-.08,1.05-8.32-3.18-13.4-2.06-2.47-5.05-3.82-8.89-4.02l.02-1h49.64l.11,.06c.36,.19,8.97,4.77,13.77,18.26l.24,.67Zm-50.66-1h49.24c-4.43-11.82-11.98-16.44-12.94-16.99h-44.46c1.87,.74,3.44,1.86,4.7,3.38,3.9,4.69,3.64,11.58,3.46,13.61Z" fill="#002346"></path>
    </g>
    <g>
      <polygon points="606.18 560.23 608.41 570.63 649.54 570.62 647.03 559.98 606.18 560.23" fill="#e6e7e8"></polygon>
      <path d="M608,571.13l-2.44-11.4,41.87-.25,2.74,11.64h-42.16Zm-1.21-10.39l2.01,9.4h40.09s-2.27-9.64-2.27-9.64l-39.84,.24Z" fill="#002346"></path>
    </g>
    <path d="M631.03,618.43c-8.46,0-15.82-2.25-21.88-6.7-6.31-4.63-10.77-11.5-12.57-19.36l-4.73-21.26c-.06-.27,.11-.54,.38-.6,.27-.06,.54,.11,.6,.38l4.73,21.26c1.74,7.61,6.07,14.28,12.19,18.77,6.09,4.47,13.56,6.66,22.18,6.5,.1,0,9.11,.02,15.09-5.9,3.55-3.52,5.35-8.42,5.36-14.56,0-2.38-.3-4.85-.9-7.36l-4.45-18.72c-.06-.27,.1-.54,.37-.6,.27-.06,.54,.1,.6,.37l4.45,18.72c.61,2.58,.92,5.14,.92,7.59,0,6.43-1.91,11.57-5.66,15.28-6.28,6.21-15.42,6.18-15.78,6.19-.3,0-.6,0-.89,0Z" fill="#002346"></path>
    <path d="M548.26,650.69c-.14,0-.28-.06-.38-.17-.18-.21-.16-.52,.05-.71l15.58-13.46c.18-.16,.46-.16,.65,0l16.05,13.29c.21,.18,.24,.49,.07,.7-.18,.21-.49,.24-.7,.07l-15.73-13.02-15.26,13.18c-.09,.08-.21,.12-.33,.12Z" fill="#fff"></path>
    <path d="M563.84,637.24c-.28,0-.5-.22-.5-.5v-65.86c0-.28,.22-.5,.5-.5s.5,.22,.5,.5v65.86c0,.28-.22,.5-.5,.5Z" fill="#fff"></path>
  </g>
  <g>
    <rect x="251.34" y="309.6" width="341" height="21" fill="#fff"></rect>
    <path d="M592.84,331.11H250.84v-22h342v22Zm-341-1h340v-20H251.84v20Z" fill="#002346"></path>
  </g>
  <path d="M204.88,198.02H120.88c-.28,0-.5-.22-.5-.5s.22-.5,.5-.5h84c.28,0,.5,.22,.5,.5s-.22,.5-.5,.5Z" fill="#002346"></path>
  <path d="M164.38,204.31h-38c-.28,0-.5-.22-.5-.5s.22-.5,.5-.5h38c.28,0,.5,.22,.5,.5s-.22,.5-.5,.5Z" fill="#002346"></path>
  <g>
    <circle cx="167.38" cy="203.81" r="3" fill="#c4b5fd"></circle>
    <path d="M167.38,207.31c-1.93,0-3.5-1.57-3.5-3.5s1.57-3.5,3.5-3.5,3.5,1.57,3.5,3.5-1.57,3.5-3.5,3.5Zm0-6c-1.38,0-2.5,1.12-2.5,2.5s1.12,2.5,2.5,2.5,2.5-1.12,2.5-2.5-1.12-2.5-2.5-2.5Z" fill="#002346"></path>
  </g>
  <g>
    <path d="M332.38,73.81h0c31.46,0,57,25.54,57,57h-114c0-31.46,25.54-57,57-57Z" fill="#fff"></path>
    <path d="M389.88,131.31h-115v-.5c0-31.71,25.79-57.5,57.5-57.5s57.5,25.79,57.5,57.5v.5Zm-114-1h113c-.27-30.92-25.51-56-56.5-56s-56.23,25.08-56.5,56Z" fill="#002346"></path>
  </g>
  <path d="M347.37,76.31c-.13,0-.27-.05-.36-.16l-14.63-15.53-14.63,15.53c-.19,.2-.51,.21-.71,.02-.2-.19-.21-.51-.02-.71l14.99-15.92c.19-.2,.54-.2,.73,0l14.99,15.92c.19,.2,.18,.52-.02,.71-.1,.09-.22,.14-.34,.14Z" fill="#002346"></path>
  <path d="M332.38,60.39c-.28,0-.5-.22-.5-.5V30.29c0-.28,.22-.5,.5-.5s.5,.22,.5,.5v29.6c0,.28-.22,.5-.5,.5Z" fill="#002346"></path>
  <g>
    <circle cx="332.88" cy="130.31" r="16.5" fill="#6d28d9"></circle>
    <path d="M332.88,147.31c-9.37,0-17-7.63-17-17s7.63-17,17-17,17,7.63,17,17-7.63,17-17,17Zm0-33c-8.82,0-16,7.18-16,16s7.18,16,16,16,16-7.18,16-16-7.18-16-16-16Z" fill="#002346"></path>
  </g>
  <g>
    <circle cx="463.38" cy="130.81" r="14" fill="#002346"></circle>
    <path d="M463.38,145.31c-8,0-14.5-6.5-14.5-14.5s6.5-14.5,14.5-14.5,14.5,6.5,14.5,14.5-6.5,14.5-14.5,14.5Zm0-28c-7.44,0-13.5,6.06-13.5,13.5s6.06,13.5,13.5,13.5,13.5-6.06,13.5-13.5-6.06-13.5-13.5-13.5Z" fill="#002346"></path>
  </g>
  <g>
    <ellipse cx="439.38" cy="154.81" rx="17" ry="8" fill="#002346"></ellipse>
    <path d="M439.38,163.31c-9.81,0-17.5-3.73-17.5-8.5s7.69-8.5,17.5-8.5,17.5,3.73,17.5,8.5-7.69,8.5-17.5,8.5Zm0-16c-8.94,0-16.5,3.43-16.5,7.5s7.56,7.5,16.5,7.5,16.5-3.43,16.5-7.5-7.56-7.5-16.5-7.5Z" fill="#002346"></path>
  </g>
  <path d="M209.48,376.31H89.43c-.28,0-.5-.22-.5-.5s.22-.5,.5-.5h120.05c.28,0,.5,.22,.5,.5s-.22,.5-.5,.5Z" fill="#002346"></path>
</svg>
